<svg width="25" height="23" viewBox="0 0 25 23" fill="none" xmlns="http://www.w3.org/2000/svg">
<path id="Vector" fill-rule="evenodd" clip-rule="evenodd" d="M2.13841 4.5793V19.3814C2.13841 19.774 2.29436 20.1505 2.57195 20.428C2.84955 20.7056 3.22604 20.8616 3.61862 20.8616H21.3811C21.7737 20.8616 22.1502 20.7056 22.4278 20.428C22.7054 20.1505 22.8613 19.774 22.8613 19.3814V4.5793H2.13841ZM3.61862 0.138672C2.83347 0.138672 2.08047 0.450572 1.52529 1.00576C0.970103 1.56094 0.658203 2.31394 0.658203 3.09909L0.658203 19.3814C0.658203 20.1665 0.970103 20.9195 1.52529 21.4747C2.08047 22.0299 2.83347 22.3418 3.61862 22.3418H21.3811C22.1663 22.3418 22.9193 22.0299 23.4744 21.4747C24.0296 20.9195 24.3415 20.1665 24.3415 19.3814V3.09909C24.3415 2.31394 24.0296 1.56094 23.4744 1.00576C22.9193 0.450572 22.1663 0.138672 21.3811 0.138672H3.61862Z" fill="#5661CB"/>
</svg>
